<svg width="130" height="136" viewBox="0 0 130 136" fill="none" xmlns="http://www.w3.org/2000/svg">
<ellipse cx="65" cy="62.5" rx="31" ry="25.5" fill="#1A1717"/>
<path d="M45.2585 62.4545H43.2557C43.2415 62.2888 43.2036 62.1385 43.142 62.0036C43.0829 61.8686 43 61.7526 42.8935 61.6555C42.7893 61.5561 42.6626 61.4804 42.5135 61.4283C42.3643 61.3738 42.1951 61.3466 42.0057 61.3466C41.6742 61.3466 41.3937 61.4271 41.1641 61.5881C40.9368 61.7491 40.764 61.9799 40.6456 62.2805C40.5296 62.5812 40.4716 62.9422 40.4716 63.3636C40.4716 63.8087 40.5308 64.1816 40.6491 64.4822C40.7699 64.7805 40.9439 65.0054 41.1712 65.157C41.3984 65.3061 41.6719 65.3807 41.9915 65.3807C42.1738 65.3807 42.3371 65.3582 42.4815 65.3132C42.6259 65.2659 42.7514 65.1984 42.858 65.1108C42.9645 65.0232 43.0509 64.9179 43.1172 64.7947C43.1858 64.6693 43.232 64.5284 43.2557 64.3722L45.2585 64.3864C45.2348 64.6941 45.1484 65.0078 44.9993 65.3274C44.8501 65.6446 44.6383 65.9382 44.3636 66.2081C44.0914 66.4756 43.754 66.6911 43.3516 66.8544C42.9491 67.0178 42.4815 67.0994 41.9489 67.0994C41.2812 67.0994 40.6823 66.9562 40.152 66.6697C39.6241 66.3833 39.2062 65.9619 38.8984 65.4055C38.593 64.8492 38.4403 64.1686 38.4403 63.3636C38.4403 62.554 38.5966 61.8722 38.9091 61.3182C39.2216 60.7618 39.643 60.3416 40.1733 60.0575C40.7036 59.7711 41.2955 59.6278 41.9489 59.6278C42.4081 59.6278 42.8307 59.6906 43.2166 59.8161C43.6025 59.9415 43.9411 60.125 44.2322 60.3665C44.5234 60.6056 44.7578 60.9003 44.9354 61.2507C45.1129 61.6011 45.2206 62.0024 45.2585 62.4545ZM47.7026 67.0852C47.3546 67.0852 47.0468 67.0284 46.7793 66.9148C46.5141 66.7988 46.3058 66.6236 46.1543 66.3892C46.0028 66.1548 45.927 65.8565 45.927 65.4943C45.927 65.196 45.9779 64.9415 46.0797 64.7308C46.1815 64.5178 46.3236 64.3438 46.5059 64.2088C46.6882 64.0739 46.9 63.9709 47.1415 63.8999C47.3854 63.8288 47.6481 63.7827 47.9299 63.7614C48.2353 63.7377 48.4803 63.7093 48.665 63.6761C48.852 63.6406 48.9869 63.5921 49.0698 63.5305C49.1526 63.4666 49.1941 63.3826 49.1941 63.2784V63.2642C49.1941 63.1222 49.1396 63.0133 49.0307 62.9375C48.9218 62.8617 48.7821 62.8239 48.6117 62.8239C48.4247 62.8239 48.272 62.8653 48.1536 62.9482C48.0376 63.0286 47.9677 63.1529 47.9441 63.321H46.1401C46.1638 62.9896 46.2691 62.6842 46.4561 62.4048C46.6455 62.1231 46.9213 61.8982 47.2836 61.7301C47.6458 61.5597 48.098 61.4744 48.6401 61.4744C49.0307 61.4744 49.3811 61.5206 49.6912 61.6129C50.0014 61.7029 50.2653 61.8295 50.4831 61.9929C50.7009 62.1539 50.8667 62.3433 50.9803 62.5611C51.0963 62.7765 51.1543 63.0109 51.1543 63.2642V67H49.3219V66.233H49.2793C49.1704 66.4366 49.0378 66.6011 48.8816 66.7266C48.7277 66.852 48.5513 66.9432 48.3525 67C48.156 67.0568 47.9393 67.0852 47.7026 67.0852ZM48.3418 65.8494C48.4909 65.8494 48.6306 65.8187 48.7608 65.7571C48.8934 65.6955 49.0011 65.6068 49.084 65.4908C49.1668 65.3748 49.2083 65.2339 49.2083 65.0682V64.6136C49.1562 64.6349 49.1006 64.6551 49.0414 64.674C48.9846 64.6929 48.923 64.7107 48.8567 64.7273C48.7928 64.7438 48.7241 64.7592 48.6507 64.7734C48.5797 64.7876 48.5051 64.8007 48.427 64.8125C48.2755 64.8362 48.1512 64.8752 48.0542 64.9297C47.9595 64.9818 47.8884 65.0469 47.8411 65.125C47.7961 65.2008 47.7736 65.286 47.7736 65.3807C47.7736 65.5322 47.8269 65.6482 47.9334 65.7287C48.04 65.8092 48.1761 65.8494 48.3418 65.8494ZM51.4047 61.3182V59.7273H57.7257V61.3182H55.5382V67H53.5922V61.3182H51.4047ZM61.2919 64.6136V61.5455H63.2521V67H61.3913V65.9631H61.3345C61.2161 66.3111 61.009 66.5833 60.7131 66.7798C60.4171 66.974 60.0656 67.071 59.6584 67.071C59.2772 67.071 58.9434 66.9834 58.657 66.8082C58.3729 66.633 58.1515 66.3916 57.9929 66.0838C57.8366 65.776 57.7573 65.4233 57.755 65.0256V61.5455H59.7152V64.6136C59.7176 64.8835 59.7862 65.0954 59.9212 65.2493C60.0585 65.4032 60.2502 65.4801 60.4964 65.4801C60.6598 65.4801 60.8007 65.4458 60.919 65.3771C61.0398 65.3061 61.1321 65.2067 61.196 65.0788C61.2623 64.9486 61.2943 64.7936 61.2919 64.6136ZM64.2207 67V59.7273H67.3741C67.9281 59.7273 68.3933 59.8018 68.7697 59.951C69.1485 60.1001 69.4338 60.3108 69.6255 60.5831C69.8197 60.8554 69.9167 61.1761 69.9167 61.5455C69.9167 61.813 69.8575 62.0568 69.7392 62.277C69.6232 62.4972 69.4598 62.6818 69.2491 62.831C69.0384 62.9777 68.7922 63.0795 68.5105 63.1364V63.2074C68.823 63.2192 69.1071 63.2985 69.3627 63.4453C69.6184 63.5897 69.822 63.7898 69.9735 64.0455C70.1251 64.2988 70.2008 64.5971 70.2008 64.9403C70.2008 65.3381 70.0967 65.692 69.8883 66.0021C69.6824 66.3123 69.3888 66.5561 69.0076 66.7337C68.6265 66.9112 68.1719 67 67.644 67H64.2207ZM66.1951 65.4233H67.1184C67.4499 65.4233 67.6984 65.3617 67.8642 65.2386C68.0299 65.1132 68.1127 64.9285 68.1127 64.6847C68.1127 64.5142 68.0737 64.3698 67.9956 64.2514C67.9174 64.133 67.8062 64.0431 67.6618 63.9815C67.5197 63.92 67.3481 63.8892 67.1468 63.8892H66.1951V65.4233ZM66.1951 62.6676H67.0048C67.1776 62.6676 67.3303 62.6404 67.4629 62.5859C67.5955 62.5315 67.6984 62.4534 67.7718 62.3516C67.8476 62.2474 67.8855 62.1207 67.8855 61.9716C67.8855 61.7467 67.805 61.575 67.644 61.4567C67.483 61.3359 67.2794 61.2756 67.0332 61.2756H66.1951V62.6676ZM73.5424 67.0994C72.96 67.0994 72.4582 66.9882 72.0368 66.7656C71.6177 66.5407 71.2946 66.2187 71.0673 65.7997C70.8424 65.3783 70.7299 64.8741 70.7299 64.2869C70.7299 63.7235 70.8436 63.2311 71.0708 62.8097C71.2981 62.3883 71.6189 62.0604 72.0332 61.826C72.4475 61.5916 72.9364 61.4744 73.4998 61.4744C73.9118 61.4744 74.2846 61.5384 74.6184 61.6662C74.9522 61.794 75.2375 61.9799 75.4743 62.2237C75.711 62.4652 75.8933 62.7588 76.0211 63.1044C76.149 63.45 76.2129 63.8395 76.2129 64.2727V64.7273H71.3407V63.6477H74.4089C74.4065 63.4915 74.3663 63.3542 74.2882 63.2358C74.2124 63.1151 74.1094 63.0215 73.9792 62.9553C73.8514 62.8866 73.7058 62.8523 73.5424 62.8523C73.3838 62.8523 73.2382 62.8866 73.1056 62.9553C72.9731 63.0215 72.8665 63.1139 72.786 63.2322C72.7079 63.3506 72.6665 63.4891 72.6618 63.6477V64.8125C72.6618 64.9877 72.6984 65.1439 72.7718 65.2812C72.8452 65.4186 72.9506 65.5263 73.0879 65.6044C73.2252 65.6825 73.3909 65.7216 73.585 65.7216C73.72 65.7216 73.8431 65.7027 73.9544 65.6648C74.068 65.6269 74.1651 65.5724 74.2456 65.5014C74.3261 65.428 74.3852 65.3404 74.4231 65.2386H76.2129C76.1513 65.6174 76.0057 65.9465 75.7761 66.2259C75.5465 66.5028 75.2422 66.7183 74.8635 66.8722C74.487 67.0237 74.0467 67.0994 73.5424 67.0994ZM78.973 59.7273V67H77.0128V59.7273H78.973ZM82.5996 67.0994C82.0078 67.0994 81.5011 66.9822 81.0797 66.7479C80.6583 66.5111 80.3352 66.1821 80.1103 65.7607C79.8854 65.3369 79.7729 64.8456 79.7729 64.2869C79.7729 63.7282 79.8854 63.2382 80.1103 62.8168C80.3352 62.393 80.6583 62.0639 81.0797 61.8295C81.5011 61.5928 82.0078 61.4744 82.5996 61.4744C83.1915 61.4744 83.6981 61.5928 84.1195 61.8295C84.5409 62.0639 84.8641 62.393 85.089 62.8168C85.3139 63.2382 85.4263 63.7282 85.4263 64.2869C85.4263 64.8456 85.3139 65.3369 85.089 65.7607C84.8641 66.1821 84.5409 66.5111 84.1195 66.7479C83.6981 66.9822 83.1915 67.0994 82.5996 67.0994ZM82.6138 65.6506C82.7795 65.6506 82.9228 65.5949 83.0435 65.4837C83.1642 65.3724 83.2578 65.2138 83.324 65.0078C83.3903 64.8018 83.4235 64.5568 83.4235 64.2727C83.4235 63.9863 83.3903 63.7412 83.324 63.5376C83.2578 63.3317 83.1642 63.1731 83.0435 63.0618C82.9228 62.9505 82.7795 62.8949 82.6138 62.8949C82.4386 62.8949 82.2883 62.9505 82.1628 63.0618C82.0373 63.1731 81.9415 63.3317 81.8752 63.5376C81.8089 63.7412 81.7757 63.9863 81.7757 64.2727C81.7757 64.5568 81.8089 64.8018 81.8752 65.0078C81.9415 65.2138 82.0373 65.3724 82.1628 65.4837C82.2883 65.5949 82.4386 65.6506 82.6138 65.6506ZM91.2076 63.321H89.4036C89.3941 63.2098 89.3551 63.1139 89.2864 63.0334C89.2177 62.9529 89.129 62.8913 89.0201 62.8487C88.9135 62.8037 88.7952 62.7812 88.665 62.7812C88.4969 62.7812 88.3525 62.812 88.2317 62.8736C88.111 62.9351 88.0518 63.0227 88.0542 63.1364C88.0518 63.2169 88.0861 63.2914 88.1571 63.3601C88.2305 63.4287 88.3714 63.482 88.5797 63.5199L89.6877 63.7188C90.2464 63.8205 90.6619 63.9922 90.9341 64.2337C91.2087 64.4728 91.3472 64.7936 91.3496 65.196C91.3472 65.5843 91.2312 65.9216 91.0016 66.2081C90.7743 66.4922 90.463 66.7124 90.0676 66.8686C89.6747 67.0225 89.226 67.0994 88.7218 67.0994C87.8884 67.0994 87.2362 66.929 86.7651 66.5881C86.2963 66.2472 86.0347 65.7973 85.9803 65.2386H87.9263C87.9524 65.4115 88.0376 65.5452 88.182 65.6399C88.3288 65.7322 88.5134 65.7784 88.736 65.7784C88.9159 65.7784 89.0639 65.7476 89.1799 65.6861C89.2982 65.6245 89.3586 65.5369 89.361 65.4233C89.3586 65.3191 89.3065 65.2363 89.2047 65.1747C89.1053 65.1132 88.949 65.0634 88.736 65.0256L87.7701 64.8551C87.2137 64.758 86.7971 64.5734 86.5201 64.3011C86.2431 64.0289 86.1058 63.6785 86.1081 63.25C86.1058 62.8712 86.2052 62.5504 86.4064 62.2876C86.61 62.0225 86.9 61.8213 87.2765 61.6839C87.6552 61.5443 88.1039 61.4744 88.6223 61.4744C89.4107 61.4744 90.0321 61.6378 90.4867 61.9645C90.9436 62.2912 91.1839 62.7434 91.2076 63.321Z" fill="white"/>
<path d="M30.6136 104.727H27.4091C27.3864 104.462 27.3258 104.222 27.2273 104.006C27.1326 103.79 27 103.604 26.8295 103.449C26.6629 103.29 26.4602 103.169 26.2216 103.085C25.983 102.998 25.7121 102.955 25.4091 102.955C24.8788 102.955 24.4299 103.083 24.0625 103.341C23.6989 103.598 23.4223 103.968 23.233 104.449C23.0473 104.93 22.9545 105.508 22.9545 106.182C22.9545 106.894 23.0492 107.491 23.2386 107.972C23.4318 108.449 23.7102 108.809 24.0739 109.051C24.4375 109.29 24.875 109.409 25.3864 109.409C25.678 109.409 25.9394 109.373 26.1705 109.301C26.4015 109.225 26.6023 109.117 26.7727 108.977C26.9432 108.837 27.0814 108.669 27.1875 108.472C27.2973 108.271 27.3712 108.045 27.4091 107.795L30.6136 107.818C30.5758 108.311 30.4375 108.812 30.1989 109.324C29.9602 109.831 29.6212 110.301 29.1818 110.733C28.7462 111.161 28.2064 111.506 27.5625 111.767C26.9186 112.028 26.1705 112.159 25.3182 112.159C24.25 112.159 23.2917 111.93 22.4432 111.472C21.5985 111.013 20.9299 110.339 20.4375 109.449C19.9489 108.559 19.7045 107.47 19.7045 106.182C19.7045 104.886 19.9545 103.795 20.4545 102.909C20.9545 102.019 21.6288 101.347 22.4773 100.892C23.3258 100.434 24.2727 100.205 25.3182 100.205C26.053 100.205 26.7292 100.305 27.3466 100.506C27.964 100.706 28.5057 101 28.9716 101.386C29.4375 101.769 29.8125 102.241 30.0966 102.801C30.3807 103.362 30.553 104.004 30.6136 104.727ZM34.5241 112.136C33.9673 112.136 33.4749 112.045 33.0469 111.864C32.6226 111.678 32.2893 111.398 32.0469 111.023C31.8045 110.648 31.6832 110.17 31.6832 109.591C31.6832 109.114 31.7647 108.706 31.9276 108.369C32.0904 108.028 32.3177 107.75 32.6094 107.534C32.901 107.318 33.2401 107.153 33.6264 107.04C34.0166 106.926 34.437 106.852 34.8878 106.818C35.3764 106.78 35.7685 106.735 36.0639 106.682C36.3632 106.625 36.5791 106.547 36.7116 106.449C36.8442 106.347 36.9105 106.212 36.9105 106.045V106.023C36.9105 105.795 36.8234 105.621 36.6491 105.5C36.4749 105.379 36.2514 105.318 35.9787 105.318C35.6795 105.318 35.4351 105.384 35.2457 105.517C35.0601 105.646 34.9484 105.845 34.9105 106.114H32.0241C32.062 105.583 32.2306 105.095 32.5298 104.648C32.8329 104.197 33.2741 103.837 33.8537 103.568C34.4332 103.295 35.1567 103.159 36.0241 103.159C36.6491 103.159 37.2098 103.233 37.706 103.381C38.2022 103.525 38.6245 103.727 38.973 103.989C39.3215 104.246 39.5866 104.549 39.7685 104.898C39.9541 105.242 40.0469 105.617 40.0469 106.023V112H37.1151V110.773H37.0469C36.8726 111.098 36.6605 111.362 36.4105 111.562C36.1643 111.763 35.8821 111.909 35.5639 112C35.2495 112.091 34.9029 112.136 34.5241 112.136ZM35.5469 110.159C35.7855 110.159 36.009 110.11 36.2173 110.011C36.4295 109.913 36.6018 109.771 36.7344 109.585C36.867 109.4 36.9332 109.174 36.9332 108.909V108.182C36.8499 108.216 36.7609 108.248 36.6662 108.278C36.5753 108.309 36.4768 108.337 36.3707 108.364C36.2685 108.39 36.1586 108.415 36.0412 108.438C35.9276 108.46 35.8082 108.481 35.6832 108.5C35.4408 108.538 35.242 108.6 35.0866 108.688C34.9351 108.771 34.8215 108.875 34.7457 109C34.6738 109.121 34.6378 109.258 34.6378 109.409C34.6378 109.652 34.723 109.837 34.8935 109.966C35.0639 110.095 35.2817 110.159 35.5469 110.159ZM40.4474 102.909V100.364H50.5611V102.909H47.0611V112H43.9474V102.909H40.4474ZM56.267 108.182V103.273H59.4034V112H56.4261V110.341H56.3352C56.1458 110.898 55.8144 111.333 55.3409 111.648C54.8674 111.958 54.3049 112.114 53.6534 112.114C53.0436 112.114 52.5095 111.973 52.0511 111.693C51.5966 111.413 51.2424 111.027 50.9886 110.534C50.7386 110.042 50.6117 109.477 50.608 108.841V103.273H53.7443V108.182C53.7481 108.614 53.858 108.953 54.0739 109.199C54.2936 109.445 54.6004 109.568 54.9943 109.568C55.2557 109.568 55.4811 109.513 55.6705 109.403C55.8636 109.29 56.0114 109.131 56.1136 108.926C56.2197 108.718 56.2708 108.47 56.267 108.182ZM60.9531 112V100.364H65.9986C66.8849 100.364 67.6293 100.483 68.2315 100.722C68.8376 100.96 69.294 101.297 69.6009 101.733C69.9115 102.169 70.0668 102.682 70.0668 103.273C70.0668 103.701 69.9721 104.091 69.7827 104.443C69.5971 104.795 69.3357 105.091 68.9986 105.33C68.6615 105.564 68.2675 105.727 67.8168 105.818V105.932C68.3168 105.951 68.7713 106.078 69.1804 106.312C69.5895 106.544 69.9152 106.864 70.1577 107.273C70.4001 107.678 70.5213 108.155 70.5213 108.705C70.5213 109.341 70.3546 109.907 70.0213 110.403C69.6918 110.9 69.2221 111.29 68.6122 111.574C68.0024 111.858 67.2751 112 66.4304 112H60.9531ZM64.1122 109.477H65.5895C66.1198 109.477 66.5175 109.379 66.7827 109.182C67.0478 108.981 67.1804 108.686 67.1804 108.295C67.1804 108.023 67.1179 107.792 66.9929 107.602C66.8679 107.413 66.6899 107.269 66.4588 107.17C66.2315 107.072 65.9569 107.023 65.6349 107.023H64.1122V109.477ZM64.1122 105.068H65.4077C65.6842 105.068 65.9285 105.025 66.1406 104.938C66.3527 104.85 66.5175 104.725 66.6349 104.562C66.7562 104.396 66.8168 104.193 66.8168 103.955C66.8168 103.595 66.688 103.32 66.4304 103.131C66.1728 102.938 65.8471 102.841 65.4531 102.841H64.1122V105.068ZM75.8679 112.159C74.9361 112.159 74.133 111.981 73.4588 111.625C72.7884 111.265 72.2713 110.75 71.9077 110.08C71.5478 109.405 71.3679 108.598 71.3679 107.659C71.3679 106.758 71.5497 105.97 71.9134 105.295C72.277 104.621 72.7902 104.097 73.4531 103.722C74.116 103.347 74.8982 103.159 75.7997 103.159C76.4588 103.159 77.0554 103.261 77.5895 103.466C78.1236 103.67 78.58 103.968 78.9588 104.358C79.3376 104.744 79.6293 105.214 79.8338 105.767C80.0384 106.32 80.1406 106.943 80.1406 107.636V108.364H72.3452V106.636H77.2543C77.2505 106.386 77.1861 106.167 77.0611 105.977C76.9399 105.784 76.7751 105.634 76.5668 105.528C76.3622 105.419 76.1293 105.364 75.8679 105.364C75.6141 105.364 75.3812 105.419 75.169 105.528C74.9569 105.634 74.7865 105.782 74.6577 105.972C74.5327 106.161 74.4664 106.383 74.4588 106.636V108.5C74.4588 108.78 74.5175 109.03 74.6349 109.25C74.7524 109.47 74.9209 109.642 75.1406 109.767C75.3603 109.892 75.6255 109.955 75.9361 109.955C76.152 109.955 76.349 109.924 76.527 109.864C76.7088 109.803 76.8641 109.716 76.9929 109.602C77.1217 109.485 77.2164 109.345 77.277 109.182H80.1406C80.0421 109.788 79.8092 110.314 79.4418 110.761C79.0743 111.205 78.5876 111.549 77.9815 111.795C77.3793 112.038 76.6747 112.159 75.8679 112.159ZM84.5568 100.364V112H81.4205V100.364H84.5568ZM90.3594 112.159C89.4124 112.159 88.6018 111.972 87.9276 111.597C87.2533 111.218 86.7363 110.691 86.3764 110.017C86.0166 109.339 85.8366 108.553 85.8366 107.659C85.8366 106.765 86.0166 105.981 86.3764 105.307C86.7363 104.629 87.2533 104.102 87.9276 103.727C88.6018 103.348 89.4124 103.159 90.3594 103.159C91.3063 103.159 92.117 103.348 92.7912 103.727C93.4654 104.102 93.9825 104.629 94.3423 105.307C94.7022 105.981 94.8821 106.765 94.8821 107.659C94.8821 108.553 94.7022 109.339 94.3423 110.017C93.9825 110.691 93.4654 111.218 92.7912 111.597C92.117 111.972 91.3063 112.159 90.3594 112.159ZM90.3821 109.841C90.6473 109.841 90.8764 109.752 91.0696 109.574C91.2628 109.396 91.4124 109.142 91.5185 108.812C91.6245 108.483 91.6776 108.091 91.6776 107.636C91.6776 107.178 91.6245 106.786 91.5185 106.46C91.4124 106.131 91.2628 105.877 91.0696 105.699C90.8764 105.521 90.6473 105.432 90.3821 105.432C90.1018 105.432 89.8613 105.521 89.6605 105.699C89.4598 105.877 89.3063 106.131 89.2003 106.46C89.0942 106.786 89.0412 107.178 89.0412 107.636C89.0412 108.091 89.0942 108.483 89.2003 108.812C89.3063 109.142 89.4598 109.396 89.6605 109.574C89.8613 109.752 90.1018 109.841 90.3821 109.841ZM104.132 106.114H101.246C101.231 105.936 101.168 105.782 101.058 105.653C100.948 105.525 100.806 105.426 100.632 105.358C100.462 105.286 100.272 105.25 100.064 105.25C99.795 105.25 99.5639 105.299 99.3707 105.398C99.1776 105.496 99.0829 105.636 99.0866 105.818C99.0829 105.947 99.1378 106.066 99.2514 106.176C99.3688 106.286 99.5942 106.371 99.9276 106.432L101.7 106.75C102.594 106.913 103.259 107.187 103.695 107.574C104.134 107.956 104.356 108.47 104.359 109.114C104.356 109.735 104.17 110.275 103.803 110.733C103.439 111.187 102.941 111.54 102.308 111.79C101.679 112.036 100.962 112.159 100.155 112.159C98.8215 112.159 97.7779 111.886 97.0241 111.341C96.2741 110.795 95.8556 110.076 95.7685 109.182H98.8821C98.9238 109.458 99.0601 109.672 99.2912 109.824C99.526 109.972 99.8215 110.045 100.178 110.045C100.465 110.045 100.702 109.996 100.888 109.898C101.077 109.799 101.174 109.659 101.178 109.477C101.174 109.311 101.09 109.178 100.928 109.08C100.768 108.981 100.518 108.902 100.178 108.841L98.6321 108.568C97.742 108.413 97.0753 108.117 96.6321 107.682C96.1889 107.246 95.9692 106.686 95.973 106C95.9692 105.394 96.1283 104.881 96.4503 104.46C96.776 104.036 97.2401 103.714 97.8423 103.494C98.4484 103.271 99.1662 103.159 99.9957 103.159C101.257 103.159 102.251 103.42 102.979 103.943C103.71 104.466 104.094 105.189 104.132 106.114Z" fill="black"/>
<path d="M77.5 22L93.5215 52H61.4785L77.5 22Z" fill="#1A1717"/>
<path d="M37.3124 51.5L52.5 23.0614L67.6876 51.5H37.3124Z" fill="#1A1717" stroke="black"/>
<path d="M0 2H130V0H0V2Z" fill="white" mask="url(#path-1-outside-1_19_106)"/>
</svg>
